<?xml version="1.0" encoding="utf-8"?>
<!-- Generator: Adobe Illustrator 23.0.2, SVG Export Plug-In . SVG Version: 6.00 Build 0)  -->
<svg version="1.1" id="Layer_1" xmlns="http://www.w3.org/2000/svg" xmlns:xlink="http://www.w3.org/1999/xlink" x="0px" y="0px"
	 viewBox="0 0 1366 768" style="enable-background:new 0 0 1366 768;" xml:space="preserve">
<style type="text/css">
	.st0{fill:#F1AF1D;}
	.st1{fill:#011E41;}
	.st2{fill:none;}
	.st3{fill:#EFC319;}
	.st4{fill:#FBCD0F;}
	.st5{fill:#E5A424;}
	.st6{fill:#F6E000;}
	.st7{fill:#FFFFFF;}
	.st8{fill:#EBECEC;}
	.st9{opacity:0.3;fill:#FFFFFF;}
	.st10{opacity:0.5;fill:#FFFFFF;}
	.st11{fill:#2A2B29;}
	.st12{fill:#5B5C5B;}
	.st13{fill:#EA692F;}
	.st14{fill:#DA5526;}
	.st15{fill:#636463;}
</style>
<g>
	<g>
		<g>
			<g>
				<g>
					<path class="st0" d="M663.01,213.33l0.13,0.39h23.64v17.09h-18.11h-4.41c0,0-3.43,43.29,24.15,60.96l4.18,10.69
						c-25.52-9.65-43.86-32.65-43.86-61.55v-27.57H663.01z"/>
					<path class="st0" d="M864.24,240.9v-27.57h-38.25v-8.54h-71.52l0.36,106.31h60.63c1.22-2.06,1.79-5.65,2.81-7.83
						C844.7,294.09,864.24,270.44,864.24,240.9z M823.39,292.48c1.68-6.14,2.59-12.52,2.59-18.97V230.8h22.71
						C848.7,230.8,852.24,275.31,823.39,292.48z"/>
					<polygon class="st1" points="699.4,457.58 699.4,393.12 813.56,393.12 813.56,457.58 818.22,457.58 818.22,470.78 
						694.73,470.78 694.73,457.58 					"/>
					<path class="st2" d="M685.41,229.25v42.71c0,6.45,0.9,12.83,2.59,18.97c-28.84-17.18-25.31-61.69-25.31-61.69H685.41z"/>
					<path class="st2" d="M827.54,229.25h22.72c0,0,3.53,44.5-25.31,61.69c1.69-6.14,2.59-12.52,2.59-18.97V229.25z"/>
					<path class="st3" d="M647.17,211.77v27.57c0,29.55,18.97,54.66,45.4,63.84c11.1,23.49,33.99,41.01,60.42,41.01h4.29
						l-0.47-140.96h-71.39v8.55H647.17z M662.7,229.25h22.72v42.71c0,6.45,0.9,12.83,2.59,18.97
						C659.17,273.75,662.7,229.25,662.7,229.25z"/>
					<path class="st4" d="M781.33,385.35h-9.71c2.79,0,5.05-2.26,5.05-5.05c0-2.79-2.26-5.05-5.05-5.05h-2.33v-16.33
						c2.61-0.2,4.66-2.37,4.66-5.03c0-2.66-2.05-4.83-4.66-5.03v-5.42c22.42-3.55,41.33-19.59,51.1-40.27
						c26.42-9.18,45.39-34.29,45.39-63.84v-27.57h-38.25v-8.55h-71.51l0.46,137.08h-12.82v8.56c-2.61,0.2-4.66,2.37-4.66,5.03
						c0,2.66,2.06,4.83,4.66,5.03v16.33h-2.33c-2.79,0-5.05,2.26-5.05,5.05c0,2.79,2.26,5.05,5.05,5.05h-9.71
						c-4.32,0-7.88,3.21-8.45,7.38h66.61C789.21,388.56,785.65,385.35,781.33,385.35z M824.95,290.93
						c1.69-6.14,2.59-12.52,2.59-18.97v-42.71h22.72C850.26,229.25,853.79,273.75,824.95,290.93z"/>
					<polygon class="st0" points="821.13,198.96 685.22,198.96 685.22,219.93 					"/>
					<polygon class="st5" points="769.18,358.42 743.63,358.42 743.63,362.29 					"/>
					<rect x="678.81" y="188.86" class="st4" width="155.33" height="14.76"/>
					<rect x="678.81" y="188.86" class="st3" width="76.89" height="14.76"/>
					<rect x="805.4" y="188.86" class="st6" width="15.53" height="14.76"/>
					<path class="st0" d="M773.93,354.4c-0.25,2.55-2.4,4.54-5.02,4.54h-24.85c-2.62,0-4.77-1.99-5.03-4.54H773.93z"/>
					<path class="st0" d="M776.66,380.15c0,0.05,0,0.1,0,0.15c0,2.79-2.26,5.05-5.05,5.05h-30.29c-2.79,0-5.05-2.26-5.05-5.05
						c0-0.05,0.01-0.1,0.01-0.15H776.66z"/>
					<g>
						<path class="st6" d="M765.41,348.87c2.61,0.2,4.66,2.37,4.66,5.03c0,2.66-2.05,4.83-4.66,5.03v16.33h2.33
							c2.79,0,5.05,2.26,5.05,5.05c0,2.79-2.26,5.05-5.05,5.05h-3.88c2.79,0,5.05-2.26,5.05-5.05c0-2.79-2.26-5.05-5.05-5.05h-2.33
							v-16.33c2.61-0.2,4.66-2.37,4.66-5.03c0-2.66-2.05-4.83-4.66-5.03v-5.42c60.38-30.32,40.19-140.22,40.19-140.22h15.53
							c0,0,21.75,126.98-51.84,140.22V348.87z"/>
						<path class="st6" d="M771.82,385.35l4.66-0.39c4.32,0,8.86,3.6,9.42,7.77h-3.89C781.45,388.56,776.14,385.35,771.82,385.35z"
							/>
					</g>
					<rect x="653.38" y="212.16" class="st0" width="31.84" height="17.09"/>
					<g>
						<path class="st3" d="M661.46,211.77l5.66,17.47h-4.41c0,0-3.44,43.29,24.15,60.96l3.99,12.34
							c-25.52-9.65-43.67-34.3-43.67-63.2v-27.57H661.46z"/>
					</g>
					<rect x="722.5" y="407.87" class="st7" width="66.79" height="42.72"/>
					<rect x="722.5" y="407.87" class="st8" width="34.48" height="42.72"/>
				</g>
				<path class="st9" d="M767.49,339.13c0.61,4.18-2.2,5.3-5.96,5.46c-3.76,0.14-4.6-2.69-4.68-3.7c-0.21-2.59,1.83-3.67,4.18-4.47
					C763.38,335.61,766.92,335.31,767.49,339.13z"/>
				<path class="st9" d="M765.32,369.42c-0.34,4.21-3.32,4.68-7.03,3.99c-3.7-0.7-3.89-3.65-3.74-4.65c0.37-2.57,2.6-3.18,5.07-3.43
					C762.1,365.07,765.62,365.57,765.32,369.42z"/>
				<path class="st9" d="M760.78,383.42c-0.39,3.62-2.98,3.96-6.16,3.27c-3.17-0.69-3.27-3.24-3.12-4.1
					c0.39-2.21,2.32-2.68,4.46-2.84C758.1,379.58,761.13,380.1,760.78,383.42z"/>
			</g>
			<path class="st7" d="M670.76,228.21c6.36,2.33,8.24,4.21,10.57,10.57c2.33-6.35,4.21-8.24,10.57-10.57
				c-6.35-2.33-8.24-4.21-10.57-10.57C679,224,677.11,225.88,670.76,228.21z"/>
			<path class="st7" d="M792.67,324.64c6.36,2.32,8.24,4.21,10.57,10.57c2.33-6.36,4.21-8.24,10.57-10.57
				c-6.36-2.33-8.24-4.21-10.57-10.57C800.92,320.43,799.03,322.32,792.67,324.64z"/>
			<path class="st7" d="M765.44,232.77c7.55,2.76,9.79,5,12.55,12.55c2.76-7.55,5-9.79,12.55-12.55c-7.55-2.76-9.79-5-12.55-12.55
				C775.23,227.77,772.98,230.01,765.44,232.77z"/>
			<path class="st10" d="M579.16,243.16c14.42,5.28,18.71,9.56,23.98,23.98c5.28-14.42,9.56-18.7,23.98-23.98
				c-14.42-5.28-18.7-9.56-23.98-23.98C597.86,233.6,593.58,237.88,579.16,243.16z"/>
			<path class="st10" d="M872.64,199.31c14.42,5.28,18.71,9.56,23.98,23.98c5.28-14.42,9.56-18.7,23.98-23.98
				c-14.42-5.28-18.7-9.56-23.98-23.98C891.34,189.75,887.06,194.03,872.64,199.31z"/>
			<path class="st10" d="M625.32,180.91c11.11,4.06,14.4,7.36,18.47,18.47c4.06-11.1,7.36-14.4,18.46-18.47
				c-11.1-4.07-14.4-7.36-18.46-18.47C639.72,173.55,636.42,176.85,625.32,180.91z"/>
			<path class="st10" d="M876.53,291.59c8.18,2.99,10.62,5.42,13.61,13.61c2.99-8.18,5.42-10.61,13.61-13.61
				c-8.18-3-10.61-5.42-13.61-13.61C887.15,286.16,884.72,288.59,876.53,291.59z"/>
			<path class="st10" d="M793.96,163.69c8.19,2.99,10.62,5.42,13.61,13.61c2.99-8.18,5.42-10.61,13.61-13.61
				c-8.18-3-10.61-5.43-13.61-13.61C804.58,158.27,802.15,160.69,793.96,163.69z"/>
			<path class="st10" d="M825.72,360.27c6.08,2.22,7.89,4.03,10.11,10.11c2.22-6.08,4.03-7.88,10.11-10.11
				c-6.08-2.23-7.88-4.03-10.11-10.11C833.6,356.24,831.8,358.04,825.72,360.27z"/>
			<path class="st10" d="M647.9,321.31c6.08,2.23,7.89,4.03,10.11,10.11c2.22-6.08,4.03-7.88,10.11-10.11
				c-6.08-2.23-7.88-4.03-10.11-10.11C655.79,317.28,653.98,319.08,647.9,321.31z"/>
		</g>
		<g>
			<g>
				<rect x="631.64" y="477.04" class="st11" width="252.33" height="139.96"/>
				<rect x="675.72" y="544.29" class="st12" width="164.17" height="71.31"/>
				<rect x="621.03" y="470.89" class="st13" width="273.83" height="60.11"/>
				<rect x="621.03" y="470.89" class="st14" width="273.83" height="24.49"/>
				<rect x="675.72" y="544.29" class="st15" width="84.91" height="71.31"/>
			</g>
		</g>
	</g>
	<g>
		<path class="st0" d="M863,248.14c-3.03-5.17-8.26-10.67-14.17-13.82c-0.03-2.22-0.13-3.52-0.13-3.52h-11.54
			c-0.17-0.05-0.35-0.09-0.52-0.14c-11.12-5.59-21.12-12.91-33.19-16.94c-12.49-4.17-25.96-4.6-38.64-8.08
			c-1.36-0.38-2.73-0.65-4.1-0.85h65.28v8.54h38.25v27.57c0,2.89-0.2,5.71-0.56,8.48C863.46,248.96,863.23,248.55,863,248.14z"/>
		<path class="st2" d="M841.84,231.88c-1.79-0.27-3.5-0.7-5.2-1.22c-0.91-0.46-1.81-0.93-2.71-1.41h16.33c0,0,0.18,2.26,0.12,5.96
			C847.66,233.53,844.76,232.32,841.84,231.88z"/>
		<path class="st3" d="M685.41,207.65v-4.42h15.88C695.91,204.31,690.68,205.89,685.41,207.65z"/>
		<path class="st3" d="M738.06,206.08c-1.44-0.12-2.87-0.2-4.29-0.26c-2.15-1.06-4.42-1.94-6.79-2.59h29.82l0,1.2
			c-4.6-0.15-9.14,0.61-13.38,2.16C741.64,206.4,739.85,206.23,738.06,206.08z"/>
		<path class="st4" d="M864.64,251.32c-0.49-1.08-1.04-2.15-1.65-3.17c-2.76-4.71-7.35-9.7-12.62-12.93
			c0.05-3.7-0.12-5.96-0.12-5.96h-16.33c-10.06-5.36-19.4-11.82-30.48-15.53c-12.49-4.17-25.96-4.6-38.64-8.08
			c-2.92-0.8-5.86-1.2-8.78-1.23l0-1.17h71.51v8.55h38.25v27.57c0,4.13-0.38,8.17-1.09,12.08
			C864.68,251.39,864.66,251.35,864.64,251.32z"/>
		<path class="st0" d="M738.06,206.08c-1.44-0.12-2.87-0.2-4.29-0.26c-4.73-2.34-10.04-3.74-15.61-3.99
			c-11.87-0.53-22.33,2.33-32.93,5.88v-8.75h135.91l-51.26,7.91c-1.7-0.37-3.38-0.77-5.06-1.23c-7.25-1.99-14.69-1.49-21.38,0.96
			C741.64,206.4,739.85,206.23,738.06,206.08z"/>
		<path class="st4" d="M718.15,201.83c-6.57-0.29-12.7,0.46-18.67,1.79h-20.67v-14.76h155.33v14.76H728.29
			C725.06,202.6,721.66,201.99,718.15,201.83z"/>
		<path class="st3" d="M718.15,201.83c-6.57-0.29-12.7,0.46-18.67,1.79h-20.67v-14.76h76.89v14.76h-27.42
			C725.06,202.6,721.66,201.99,718.15,201.83z"/>
		<rect x="805.4" y="188.86" class="st6" width="15.53" height="14.76"/>
		<g>
			<path class="st6" d="M803.45,213.72c-0.09-0.03-0.18-0.05-0.26-0.08c-0.76-6.52-1.47-10.41-1.47-10.41h15.53
				c0,0,1.19,6.96,2.07,17.77C814.26,218.2,809.08,215.6,803.45,213.72z"/>
		</g>
	</g>
</g>
</svg>
